<svg width="236" height="317" viewBox="0 0 236 317" fill="none" xmlns="http://www.w3.org/2000/svg">
<path d="M50.9814 134.354C50.0927 131.623 51.1939 126.335 51.6817 123.512C52.4835 118.847 57.5647 97.3754 58.9654 91.3345C60.1439 86.2586 60.8974 82.9101 64.4619 82.3359C69.2146 81.5591 79.459 84.0729 85.994 85.8003C89.1432 86.635 96.0453 87.7302 96.9147 91.0305C97.8807 94.6541 94.9295 108.039 93.582 112.984C91.65 120 90.2299 126.885 88.3221 133.886C87.3561 137.462 87.0132 140.926 82.7821 141.413L50.9814 134.354Z" fill="#FE9923" stroke="#FE9923" stroke-width="1.5" stroke-linecap="round" stroke-linejoin="round"/>
<path d="M125.136 55.9478L125.32 57.4532C121.688 56.5558 116.998 57.0672 117.529 61.8777C117.978 65.9597 122.441 65.8777 125.663 64.8741C125.784 69.0573 125.793 73.2406 125.764 77.4191" stroke="#573353" stroke-width="1.5" stroke-linecap="round" stroke-linejoin="round"/>
<path d="M149.523 50.1193C149.315 44.1074 149.079 37.7529 147.939 32.098" stroke="#573353" stroke-width="1.5" stroke-linecap="round" stroke-linejoin="round"/>
<path d="M150.16 78.6251C150.16 78.6251 150.117 75.1125 150.049 70.7507" stroke="#573353" stroke-width="1.5" stroke-linecap="round" stroke-linejoin="round"/>
<path d="M134.434 46.1914V44.3965" stroke="#573353" stroke-width="1.5" stroke-linecap="round" stroke-linejoin="round"/>
<path d="M122.378 54.1577C121.678 52.6427 121.122 47.7887 120.794 45.299C120.383 42.2496 120.465 38.9831 120.311 35.9241C120.156 32.865 119.301 25.0292 124.175 27.2391C124.257 22.3272 135.506 23.133 138.399 22.94C141.128 22.7566 144.345 22.2548 147.064 22.7566C148.644 23.0461 151.991 24.6866 149.136 26.2017C150.967 27.0123 151.068 29.1787 150.049 30.6455C148.141 33.4537 143.157 32.1413 141.061 30.8626C142.867 33.9265 139.911 36.2956 136.931 36.1701C134.468 36.0688 132.405 34.6599 130.415 33.4295C130.415 34.6696 130.415 35.9723 129.749 37.0724C129.217 37.9264 128.169 38.298 127.855 39.0989C126.957 41.4246 127.652 45.6416 127.401 48.1892C127.194 50.2929 127.261 51.5378 126.03 53.3085C125.228 54.4134 123.083 55.6776 122.378 54.1577Z" stroke="#573353" stroke-width="1.5" stroke-linecap="round" stroke-linejoin="round"/>
<path d="M150.861 78.5578C149.233 78.6832 139.568 83.3393 139.568 83.3393C139.568 83.3393 126.329 79.5324 125.31 77.4142C125.726 80.179 128.392 83.8218 129.879 86.2729C131.209 88.5896 132.712 90.8026 134.376 92.8929C135.062 90.8471 136.82 88.6179 137.892 86.7651C138.699 85.3658 139.578 83.4744 139.578 83.4744C139.578 83.4744 145.828 90.0895 146.925 90.8374C148.069 88.3931 149.088 85.8921 149.977 83.3442C150.534 81.8083 150.833 80.191 150.861 78.5578V78.5578Z" stroke="#573353" stroke-width="1.5" stroke-linecap="round" stroke-linejoin="round"/>
<path d="M126.223 94.0649C129.044 98.668 137.376 99.0685 141.848 98.6053C146.432 98.1228 149.054 95.773 151.991 92.6995" stroke="#573353" stroke-width="1.5" stroke-linecap="round" stroke-linejoin="round"/>
<path d="M140.138 86.9869C140.573 90.5719 140.665 98.62 140.665 98.62" stroke="#573353" stroke-width="1.5" stroke-linecap="round" stroke-linejoin="round"/>
<path d="M143.79 94.2822C143.775 94.0362 143.704 93.7968 143.582 93.5826" stroke="#573353" stroke-width="1.5" stroke-linecap="round" stroke-linejoin="round"/>
<path d="M176.639 105.447C177.566 107.628 177.803 109.978 178.339 112.241C179.566 117.37 179.696 122.856 180.478 128.052C184.231 152.93 185.603 178.112 187.917 203.134C188.197 206.159 188.67 213.976 188.883 217.291C188.912 217.748 188.798 218.203 188.556 218.593C188.315 218.983 187.958 219.288 187.535 219.467C186.34 219.971 185.108 220.383 183.85 220.697C180.378 221.528 176.846 222.083 173.287 222.357C168.761 222.796 164.39 223.216 159.28 223.322C157.927 199.742 157.092 176.206 155.416 152.626C153.657 128.043 152.035 103.411 152.035 78.7746C156.256 78.7746 157.739 79.619 159.854 84.8493C161.414 88.7093 162.458 93.4571 164.549 96.9407C163.849 98.1325 158.198 100.762 157.526 101.51C162.424 100.931 164.481 102.721 164.337 105.983C164.148 110.325 163.23 115.464 162.796 119.773C162.207 125.563 161.289 131.743 160.328 137.495C158.98 145.577 156.097 163.135 156.097 163.135" stroke="#573353" stroke-width="1.5" stroke-linecap="round" stroke-linejoin="round"/>
<path d="M157.705 80.8495C161.079 81.0371 164.414 81.6632 167.626 82.7119C170.654 83.6383 172.978 85.4188 174.422 89.0327C179.102 100.714 184.149 107.281 186.627 119.807C186.825 120.82 188.52 123.763 186.192 127.28C184.821 129.346 184.13 126.422 184.096 125.268C184.038 123.271 184.806 120.863 186.733 119.879C189.148 118.649 190.679 123.478 191.51 125.273C190.39 123.237 188.197 120.125 188.086 117.727C187.844 112.419 189.95 107.816 191.008 102.769C192.669 94.8323 194.548 88.0822 196.282 80.1885C196.282 80.1885 206.382 84.3138 208.121 85.192C211.144 86.7119 221.645 92.2027 222.611 92.912C216.409 111.676 210.507 130.016 201.692 147.753C200.011 151.13 194.365 156.887 190.322 158.141C189.058 158.451 187.76 158.6 186.458 158.585C185.594 158.542 184.043 158.291 184.627 157.881" stroke="#573353" stroke-width="1.5" stroke-linecap="round" stroke-linejoin="round"/>
<path d="M164.211 112.617C165.848 112.482 173.649 112.931 173.649 112.931C173.649 112.931 174.895 121.891 175.04 124.26C175.18 126.494 175.769 128.839 175.692 131.044C171.171 130.706 166.288 130.808 161.844 130.817" stroke="#573353" stroke-width="1.5" stroke-linecap="round" stroke-linejoin="round"/>
<path d="M164.549 107.151C166.877 106.972 169.234 107.392 171.62 107.378" stroke="#573353" stroke-width="1.5" stroke-linecap="round" stroke-linejoin="round"/>
<path d="M167.461 112.164C167.461 110.909 167.205 107.001 166.978 106.374" stroke="#573353" stroke-width="1.5" stroke-linecap="round" stroke-linejoin="round"/>
<path d="M164.375 130.277C164.858 128.231 165.824 125.688 167.848 125.683C170.63 125.683 172.572 130.209 172.61 130.581" stroke="#573353" stroke-width="1.5" stroke-linecap="round" stroke-linejoin="round"/>
<path d="M167.109 125.095C164.375 124.077 163.873 120.516 166.998 119.503C170.307 118.427 171.345 124.627 167.795 124.81" stroke="#573353" stroke-width="1.5" stroke-linecap="round" stroke-linejoin="round"/>
<path d="M167.732 164.698C173.243 165.861 178.841 169.041 183.473 172.221" stroke="#573353" stroke-width="1.5" stroke-linecap="round" stroke-linejoin="round"/>
<path d="M170.021 169.514C173.245 170.97 176.37 172.635 179.377 174.498" stroke="#573353" stroke-width="1.5" stroke-linecap="round" stroke-linejoin="round"/>
<path d="M121.224 164.51C121.224 164.51 114.945 168.187 112.163 169.963C110.231 171.207 107.951 172.375 106.232 173.924" stroke="#573353" stroke-width="1.5" stroke-linecap="round" stroke-linejoin="round"/>
<path d="M120.519 170.397C120.519 170.397 114.655 173.2 112.308 174.956" stroke="#573353" stroke-width="1.5" stroke-linecap="round" stroke-linejoin="round"/>
<path d="M109.091 106.34C108.97 108.97 108.56 111.696 108.207 114.316C106.439 127.57 104.826 140.612 103.604 153.944C102.58 165.041 102.353 176.264 101.546 187.419C101.025 194.57 100.479 201.75 100.846 208.915C101.049 212.775 100.571 217.248 101.353 220.977C103.812 222.907 108.023 223.872 111.197 224.181C118.07 224.892 124.985 225.106 131.888 224.823C131.681 221.851 132.12 218.126 132.371 215.081C132.932 208.399 132.811 201.745 133.086 195.004C133.318 189.214 132.26 183.617 132.159 177.837C132.043 171.265 131.594 164.51 131.024 157.895C130.367 150.508 129.797 143.116 129.681 135.7C129.609 131.16 128.401 115.276 128.063 111.759C127.469 105.621 125.02 83.2911 124.387 78.5385C124.387 78.5385 122.774 78.5916 121.253 78.664C120.655 78.6945 120.079 78.8983 119.595 79.2504C119.111 79.6026 118.741 80.0879 118.529 80.647C117.118 84.3478 115.032 87.5227 114.665 91.566C114.375 94.654 118.635 97.7275 120.562 100.135C118.63 98.5574 115.249 96.4393 114.626 100.483C114.003 104.526 117.737 114.572 119.253 119.199C122.484 129.066 130.43 157.799 131.043 160.395" stroke="#573353" stroke-width="1.5" stroke-linecap="round" stroke-linejoin="round"/>
<path d="M118.394 80.6613C111.632 82.0605 105.647 86.1955 102.658 90.2582" stroke="#573353" stroke-width="1.5" stroke-linecap="round" stroke-linejoin="round"/>
<path d="M103.329 157.181C102.29 159.155 98.1848 160.506 96.1128 160.38C93.5867 160.226 89.9883 158.45 88.8436 155.314" stroke="#573353" stroke-width="1.5" stroke-linecap="round" stroke-linejoin="round"/>
<path d="M198.06 80.1259C198.06 80.1259 199.277 74.2153 200.296 71.5229C204.223 71.7449 210.096 74.0223 213.603 75.7062C216.409 77.0524 220.365 79.2623 223.065 80.6615C222.287 83.0065 219.79 91.3055 219.79 91.3055" stroke="#573353" stroke-width="1.5" stroke-linecap="round" stroke-linejoin="round"/>
<path d="M202.223 71.4889C203.191 66.1692 203.795 60.7897 204.03 55.3878C204.208 48.8644 202.962 42.1673 202.619 35.6439C202.489 33.1735 202.02 30.1097 204.392 28.8407C206.763 27.5717 208.811 28.5801 210.009 30.7707C211.154 32.8551 214.694 42.4761 214.694 42.4761" stroke="#573353" stroke-width="1.5" stroke-linecap="round" stroke-linejoin="round"/>
<path d="M216.278 60.4592C214.428 60.4592 210.917 57.3133 214.158 54.7512C210.236 54.1143 210.56 48.6524 213.675 48.6331C212.516 47.8804 212.472 45.3328 213.675 43.7647C216.148 40.5416 228.3 37.6997 230.894 41.4584C231.406 42.2641 232.068 44.0108 231.691 45.0337C234.405 46.1048 234.405 48.3243 233.266 50.2399C236.323 51.8948 234.459 56.0829 232.024 56.9949C233.266 58.1287 231.749 61.3374 229.295 62.4954C224.789 64.6328 216.834 64.9513 216.278 60.4592Z" stroke="#573353" stroke-width="1.5" stroke-linecap="round" stroke-linejoin="round"/>
<path d="M225.552 63.6678C225.552 63.6678 222.963 74.8618 221.335 79.1898" stroke="#573353" stroke-width="1.5" stroke-linecap="round" stroke-linejoin="round"/>
<path d="M213.67 48.6333C215.602 48.7877 221.843 48.0012 223.736 47.5669C225.929 47.0844 230.015 46.3607 231.686 45.0338" stroke="#573353" stroke-width="1.5" stroke-linecap="round" stroke-linejoin="round"/>
<path d="M214.158 54.751C218.138 55.0502 222.722 54.0224 226.552 53.0333C228.881 52.3421 231.13 51.4056 233.261 50.2396" stroke="#573353" stroke-width="1.5" stroke-linecap="round" stroke-linejoin="round"/>
<path d="M211.772 67.8461C212.139 68.0825 212.545 68.3286 212.912 68.5264" stroke="#573353" stroke-width="1.5" stroke-linecap="round" stroke-linejoin="round"/>
<path d="M217.22 100.434L218.36 100.661" stroke="#573353" stroke-width="1.5" stroke-linecap="round" stroke-linejoin="round"/>
<path d="M216.114 105.331L217.008 105.51" stroke="#573353" stroke-width="1.5" stroke-linecap="round" stroke-linejoin="round"/>
<path d="M214.482 110.007L215.395 110.234" stroke="#573353" stroke-width="1.5" stroke-linecap="round" stroke-linejoin="round"/>
<path d="M131.024 148.052C133.217 148.945 133.922 148.535 136.511 148.578C139.167 148.631 142.119 147.854 144.698 148.071C146.335 148.211 147.808 148.921 149.605 148.983C151.663 149.056 152.909 147.922 154.735 147.589" stroke="#573353" stroke-width="1.5" stroke-linecap="round" stroke-linejoin="round"/>
<path d="M145.157 169.031C145.418 173.268 145.457 178.232 145.64 182.45C145.93 188.331 145.819 194.309 145.568 200.201C145.046 212.562 145.568 225.165 145.568 237.59C145.568 246.342 145.186 255.095 145.017 263.847C144.862 272.228 142.119 302.298 142.119 302.298C139.095 302.669 126.832 303.046 123.47 303.046C119.437 303.046 112.526 302.563 108.98 302.563C108.98 302.563 109.753 285.275 109.744 279.582C109.744 268.397 110.666 260.904 110.666 249.734V230.955C110.666 228.866 110.893 224.914 110.893 224.914" stroke="#573353" stroke-width="1.5" stroke-linecap="round" stroke-linejoin="round"/>
<path d="M181.43 221.445C182.492 224.77 182.169 229.6 181.652 233.025C180.952 237.706 177.305 240.176 173.924 243.303C166.702 249.933 158.992 256.013 150.861 261.493C149.779 262.236 144.997 265.773 144.997 265.773" stroke="#573353" stroke-width="1.5" stroke-linecap="round" stroke-linejoin="round"/>
<path d="M176.035 233.474C175.015 234.791 174.542 236.369 173.755 237.816" stroke="#573353" stroke-width="1.5" stroke-linecap="round" stroke-linejoin="round"/>
<path d="M110.255 253.126L98.228 263.037C98.228 263.037 100.643 270.834 101.295 273.594C102.86 279.934 105.57 284.503 107.038 290.877L109.511 289.56" stroke="#573353" stroke-width="1.5" stroke-linecap="round" stroke-linejoin="round"/>
<path d="M98.8462 265.203C95.6681 267.987 91.1182 270.226 87.5633 272.706C86.4041 273.512 83.1052 275.886 83.1052 275.886" stroke="#573353" stroke-width="1.5" stroke-linecap="round" stroke-linejoin="round"/>
<path d="M105.672 289.106C104.03 290.071 88.8682 299.335 88.8682 299.335" stroke="#573353" stroke-width="1.5" stroke-linecap="round" stroke-linejoin="round"/>
<path d="M81.5066 275.003L76.3143 277.029C76.3143 277.029 81.5645 302.119 82.4726 305.241C83.4144 308.488 83.7525 313.993 87.3026 315.036C88.2203 315.306 97.6436 315.012 97.6629 314.394C97.7305 312.667 98.6289 310.751 96.8998 309.863C95.3059 309.043 92.5962 309.863 90.8816 309.583C90.8816 309.583 88.312 297.728 86.5346 292.31C84.7571 286.891 83.9795 280.971 82.1876 275.5C82.4339 275.35 82.6368 275.326 81.5066 275.003Z" fill="#573353" stroke="#573353" stroke-width="1.5" stroke-linecap="round" stroke-linejoin="round"/>
<path d="M89.7182 300.783C92.0173 300.098 95.9248 297.984 98.1707 298.92C100.079 299.717 98.4943 301.396 97.0791 302.298C95.2148 303.519 92.5293 303.745 90.3703 303.745C92.3602 303.485 97.3013 302.887 97.9582 305.777C98.9242 310.042 91.4812 304.715 90.3703 303.745" stroke="#573353" stroke-width="1.5" stroke-linecap="round" stroke-linejoin="round"/>
<path d="M149.088 315.504C149.127 314.578 149.093 313.65 148.987 312.73C147.634 310.423 144.021 311.692 141.906 311.827C136.024 312.16 130.129 312.16 124.247 311.827C119.417 311.596 114.935 310.964 110.057 311.277C109.815 316.406 111.4 315.509 115.215 315.504H149.088Z" fill="#573353" stroke="#573353" stroke-width="1.5" stroke-linecap="round" stroke-linejoin="round"/>
<path d="M110.936 310.047C110.699 309.396 111.105 303.871 111.192 303.171" stroke="#573353" stroke-width="1.5" stroke-linecap="round" stroke-linejoin="round"/>
<path d="M137.858 310.958C137.858 310.047 138.341 304.31 138.341 303.398" stroke="#573353" stroke-width="1.5" stroke-linecap="round" stroke-linejoin="round"/>
<path d="M139.235 311.301C141.128 308.16 142.708 301.352 147.036 300.995C148.485 303.663 146.036 307.195 143.563 308.319C144.809 306.515 148.741 304.724 150.808 305.197C151.851 309.347 142.346 311.721 139.235 311.301Z" stroke="#573353" stroke-width="1.5" stroke-linecap="round" stroke-linejoin="round"/>
<path d="M55.3619 84.3381C53.2367 85.0232 49.194 87.1414 46.8466 89.6794C43.5091 93.2788 41.4322 97.795 39.8962 102.379C37.0224 110.943 37.0949 118.576 40.0315 127.126C40.5145 128.54 42.4127 133.297 44.3785 132.246" stroke="#573353" stroke-width="1.5" stroke-linecap="round" stroke-linejoin="round"/>
<path d="M41.2485 114.851C41.4948 117.423 42.6975 125.756 44.9386 126.73" stroke="#573353" stroke-width="1.5" stroke-linecap="round" stroke-linejoin="round"/>
<path d="M43.6829 106.026C43.852 108.844 43.9872 118.441 46.5809 119.783" stroke="#573353" stroke-width="1.5" stroke-linecap="round" stroke-linejoin="round"/>
<path d="M51.9953 98.5476C50.3434 100.077 50.4835 102.326 51.0969 104.497" stroke="#573353" stroke-width="1.5" stroke-linecap="round" stroke-linejoin="round"/>
<path d="M17.7023 255.915L55.9946 83.8845C56.4594 81.7894 57.6738 79.9357 59.4097 78.6716C61.1456 77.4074 63.2837 76.8196 65.4227 77.0185C70.8045 77.564 76.1539 78.3918 81.4487 79.4986C86.6463 80.7221 91.7751 82.2216 96.8129 83.9907C98.8342 84.7168 100.521 86.1542 101.558 88.0336C102.595 89.913 102.91 92.1055 102.445 94.2004L64.0607 266.651" stroke="#573353" stroke-width="1.5" stroke-linecap="round" stroke-linejoin="round"/>
<path d="M70.6106 77.2164C71.7022 74.442 72.6295 71.0404 72.6295 71.0404L92.9639 75.6531C92.9639 75.6531 92.7755 79.5517 91.4521 82.0607" stroke="#573353" stroke-width="1.5" stroke-linecap="round" stroke-linejoin="round"/>
<path d="M75.6865 70.5578C76.4158 67.3009 78.1304 60.6086 78.1304 60.6086C82.6417 61.4675 87.7132 62.3119 92.205 63.5664C91.5337 67.5663 90.6353 70.5819 89.7369 74.4564" stroke="#573353" stroke-width="1.5" stroke-linecap="round" stroke-linejoin="round"/>
<path d="M85.4576 61.2648L95.166 17.6565" stroke="#573353" stroke-width="1.5" stroke-linecap="round" stroke-linejoin="round"/>
<path d="M44.5526 272.31L37.3173 304.831" stroke="#573353" stroke-width="1.5" stroke-linecap="round" stroke-linejoin="round"/>
<path d="M33.1974 259.355L59.12 142.393L72.7937 145.428L46.7407 262.482" stroke="#573353" stroke-width="1.5" stroke-linecap="round" stroke-linejoin="round"/>
<path d="M23.8849 301.371L31.0189 269.194" stroke="#573353" stroke-width="1.5" stroke-linecap="round" stroke-linejoin="round"/>
<path d="M7.37591 263.046C9.05192 264.267 11.2979 264.542 13.5873 265.068C23.3004 267.307 32.9749 269.719 42.7025 271.891C49.3728 273.382 55.8401 274.945 62.5345 276.233C67.8185 277.266 73.3972 278.043 73.8319 273.251C74.2569 268.547 65.7416 267.061 61.1483 265.937C51.638 263.621 41.9684 261.281 32.4001 259.182C27.5347 258.101 22.6709 257.02 17.8087 255.939C15.244 255.36 10.9163 254.188 8.34191 254.612C5.1686 255.133 4.34267 257.937 5.38112 260.446C5.78511 261.484 6.47707 262.387 7.37591 263.046Z" stroke="#573353" stroke-width="1.5" stroke-linecap="round" stroke-linejoin="round"/>
<path d="M3.99502 303.542C5.41504 304.43 7.26976 304.691 9.16795 305.125C17.2244 306.968 25.2567 308.932 33.3179 310.732C38.8483 311.962 44.3207 313.207 49.7786 314.683C54.0821 315.846 59.8105 316.932 60.1099 312.073C60.4046 307.306 52.1356 308.005 48.2861 307.277C40.3118 305.776 32.3471 303.475 24.4356 301.714C20.4009 300.816 16.3679 299.92 12.3364 299.026C10.2064 298.544 6.1975 297.26 4.09645 297.468C1.50274 297.719 1.3337 299.953 2.26589 301.699C2.66685 302.457 3.26398 303.094 3.99502 303.542V303.542Z" stroke="#573353" stroke-width="1.5" stroke-linecap="round" stroke-linejoin="round"/>
<path d="M48.226 135.52L47.7205 137.79C47.5126 138.724 48.1018 139.649 49.0366 139.857L84.6756 147.776C85.6104 147.984 86.5368 147.395 86.7447 146.461L87.2502 144.191C87.4581 143.257 86.8689 142.332 85.9341 142.124L50.295 134.205C49.3602 133.998 48.4339 134.586 48.226 135.52Z" stroke="#573353" stroke-width="1.5" stroke-linecap="round" stroke-linejoin="round"/>
<path d="M38.1624 270.863C36.781 275.466 30.1446 303.05 30.1446 303.05" stroke="#573353" stroke-width="1.5" stroke-linecap="round" stroke-linejoin="round"/>
<path d="M66.1183 145.032C60.7376 166.841 55.84 191.834 50.9714 213.696C48.851 223.221 43.7264 247.138 40.5386 261.029" stroke="#573353" stroke-width="1.5" stroke-linecap="round" stroke-linejoin="round"/>
<path d="M58.3179 120.685L58.9555 123.232" stroke="#FE9923" stroke-width="1.5" stroke-linecap="round" stroke-linejoin="round"/>
<path d="M71.0302 109.597L72.8173 108.791" stroke="#FE9923" stroke-width="1.5" stroke-linecap="round" stroke-linejoin="round"/>
<path d="M64.7376 100.941L64.4816 102.085" stroke="#FE9923" stroke-width="1.5" stroke-linecap="round" stroke-linejoin="round"/>
<path d="M64.3554 89.6022L64.8626 90.9195" stroke="#FE9923" stroke-width="1.5" stroke-linecap="round" stroke-linejoin="round"/>
<path d="M80.826 96.6756L81.3766 95.9953" stroke="#FE9923" stroke-width="1.5" stroke-linecap="round" stroke-linejoin="round"/>
<path d="M87.4384 89.1387L88.3754 88.5404" stroke="#FE9923" stroke-width="1.5" stroke-linecap="round" stroke-linejoin="round"/>
<path d="M89.351 94.8467L90.6261 96.3329" stroke="#FE9923" stroke-width="1.5" stroke-linecap="round" stroke-linejoin="round"/>
<path d="M80.8456 104.516L81.3576 105.833" stroke="#FE9923" stroke-width="1.5" stroke-linecap="round" stroke-linejoin="round"/>
<path d="M79.3141 119.189L81.1012 118.383" stroke="#FE9923" stroke-width="1.5" stroke-linecap="round" stroke-linejoin="round"/>
<path d="M89.9883 109.192L91.6015 109.148" stroke="#FE9923" stroke-width="1.5" stroke-linecap="round" stroke-linejoin="round"/>
<path d="M87.0617 114.002L87.4867 115.701" stroke="#FE9923" stroke-width="1.5" stroke-linecap="round" stroke-linejoin="round"/>
<path d="M83.3955 134.364L83.9896 135.295" stroke="#FE9923" stroke-width="1.5" stroke-linecap="round" stroke-linejoin="round"/>
<path d="M85.0526 128.714L86.7527 128.289" stroke="#FE9923" stroke-width="1.5" stroke-linecap="round" stroke-linejoin="round"/>
<path d="M75.8316 127.218L76.8507 126.238" stroke="#FE9923" stroke-width="1.5" stroke-linecap="round" stroke-linejoin="round"/>
<path d="M75.4549 135.333L74.2812 135.29" stroke="#FE9923" stroke-width="1.5" stroke-linecap="round" stroke-linejoin="round"/>
<path d="M67.2827 121.959L68.5578 123.445" stroke="#FE9923" stroke-width="1.5" stroke-linecap="round" stroke-linejoin="round"/>
<path d="M71.3874 115.556L72.4548 115.845" stroke="#FE9923" stroke-width="1.5" stroke-linecap="round" stroke-linejoin="round"/>
<path d="M72.2187 101.409L71.6246 100.473" stroke="#FE9923" stroke-width="1.5" stroke-linecap="round" stroke-linejoin="round"/>
<path d="M59.2505 112.955L58.0188 113.086" stroke="#FE9923" stroke-width="1.5" stroke-linecap="round" stroke-linejoin="round"/>
<path d="M57.7966 107.604L57.7532 105.992" stroke="#FE9923" stroke-width="1.5" stroke-linecap="round" stroke-linejoin="round"/>
<path d="M53.0433 128.714L54.7435 128.289" stroke="#FE9923" stroke-width="1.5" stroke-linecap="round" stroke-linejoin="round"/>
<path d="M64.4614 132.067L65.268 130.238" stroke="#FE9923" stroke-width="1.5" stroke-linecap="round" stroke-linejoin="round"/>
<path d="M75.1219 92.2029L74.6099 90.8856" stroke="#FE9923" stroke-width="1.5" stroke-linecap="round" stroke-linejoin="round"/>
<path d="M70.6056 85.3995L71.9242 84.8881" stroke="#FE9923" stroke-width="1.5" stroke-linecap="round" stroke-linejoin="round"/>
<path d="M93.0362 6.52513C92.9831 5.7483 91.2201 3.26343 90.6212 2.80023" stroke="#FE9923" stroke-width="1.5" stroke-linecap="round" stroke-linejoin="round"/>
<path d="M100.436 5.84005C100.885 4.21885 102.315 2.80513 103.474 1.59406" stroke="#FE9923" stroke-width="1.5" stroke-linecap="round" stroke-linejoin="round"/>
<path d="M106.661 11.437C108.179 10.5749 109.944 10.2485 111.67 10.5106" stroke="#FE9923" stroke-width="1.5" stroke-linecap="round" stroke-linejoin="round"/>
<path d="M151.899 52.2227C150.31 48.821 145.499 49.7571 141.978 49.8391C137.827 49.967 133.729 50.8093 129.865 52.3288C131.391 54.5869 131.314 59.9523 131.183 62.7605C131.139 64.6912 130.894 66.6121 130.454 68.4926L130.309 68.9172C133.893 70.2778 137.38 71.4696 141.239 71.6288C143.707 71.7301 147.219 71.9424 149.571 70.9823C151.3 70.273 152.469 69.1198 152.797 67.2767C153.652 62.8039 153.875 56.4542 151.899 52.2227Z" fill="#ABDDDF" stroke="#ABDDDF" stroke-width="1.5" stroke-linecap="round" stroke-linejoin="round"/>
<path d="M131.647 57.0138C133.067 56.6793 134.506 56.4328 135.956 56.2756" stroke="#573353" stroke-width="1.5" stroke-linecap="round" stroke-linejoin="round"/>
<path d="M131.198 64.1503C131.884 64.3288 134.864 65.3179 135.439 65.5978" stroke="#573353" stroke-width="1.5" stroke-linecap="round" stroke-linejoin="round"/>
<path d="M130.309 68.9174C129.097 68.5314 124.315 66.6786 124.315 66.6786" stroke="#ABDDDF" stroke-width="1.5" stroke-linecap="round" stroke-linejoin="round"/>
<path d="M124.17 55.5084C124.17 55.5084 127.348 53.2985 129.865 52.3239" stroke="#ABDDDF" stroke-width="1.5" stroke-linecap="round" stroke-linejoin="round"/>
<path d="M145.384 45.5113V43.7116" stroke="#573353" stroke-width="1.5" stroke-linecap="round" stroke-linejoin="round"/>
<path d="M163.921 116.193C165.028 116.193 169.544 116.419 170.63 116.313" stroke="#573353" stroke-width="1.5" stroke-linecap="round" stroke-linejoin="round"/>
<path d="M216.278 60.4589C218.21 60.6085 222.866 59.8317 224.76 59.4023C226.953 58.9198 230.256 58.1719 232.005 56.9897" stroke="#573353" stroke-width="1.5" stroke-linecap="round" stroke-linejoin="round"/>
</svg>
