<svg width="42" height="42" viewBox="0 0 42 42" fill="none" xmlns="http://www.w3.org/2000/svg">
<path d="M7 20.52C7 19.8555 7.49377 19.3064 8.1344 19.2195L8.3125 19.2075L31.3845 19.2085L23.0493 10.9074C22.5356 10.3959 22.5338 9.56488 23.0453 9.05121C23.5102 8.58424 24.2393 8.54031 24.7539 8.92045L24.9014 9.04722L35.4889 19.5892C35.5566 19.6566 35.6154 19.7296 35.6654 19.8066C35.6795 19.8298 35.6938 19.8536 35.7074 19.8778C35.7199 19.8985 35.7312 19.9201 35.7419 19.9418C35.7567 19.9735 35.7712 20.0063 35.7843 20.0397C35.795 20.0654 35.8039 20.0905 35.8121 20.1158C35.8217 20.1471 35.8311 20.1804 35.8392 20.2143C35.8452 20.238 35.85 20.2607 35.8541 20.2836C35.86 20.3176 35.8649 20.3528 35.8685 20.3884C35.8715 20.4155 35.8734 20.4425 35.8744 20.4694C35.8747 20.4857 35.875 20.5028 35.875 20.52L35.8743 20.5708C35.8733 20.5966 35.8716 20.6223 35.8691 20.648L35.875 20.52C35.875 20.6028 35.8673 20.6838 35.8527 20.7624C35.8493 20.7812 35.8452 20.8004 35.8407 20.8196C35.8314 20.8591 35.8206 20.8972 35.8082 20.9345C35.8021 20.953 35.795 20.9728 35.7874 20.9925C35.7721 21.032 35.7554 21.0696 35.7371 21.1063C35.7286 21.1235 35.719 21.1416 35.709 21.1595C35.6926 21.1886 35.6757 21.2163 35.6579 21.2433C35.6453 21.2624 35.6313 21.2823 35.6167 21.3019L35.6054 21.317C35.57 21.3632 35.5316 21.407 35.4906 21.4481L35.489 21.4493L24.9015 31.993C24.3879 32.5045 23.5569 32.5028 23.0454 31.9892C22.5804 31.5223 22.5395 30.793 22.9218 30.28L23.0492 30.133L31.381 21.8335L8.3125 21.8325C7.58763 21.8325 7 21.2449 7 20.52Z" fill="white"/>
</svg>
