<svg width="36" height="40" viewBox="0 0 36 40" fill="none" xmlns="http://www.w3.org/2000/svg">
<path fill-rule="evenodd" clip-rule="evenodd" d="M21.8168 36.4349C22.594 35.6586 23.5652 35.1143 24.5882 34.7122C31.2704 32.0862 36 25.5834 36 17.9773C36 8.04868 27.9411 0 18 0C8.05887 0 0 8.04868 0 17.9773C0 25.4762 4.5972 31.9026 11.1304 34.5989C12.1036 35.0005 13.0267 35.5318 13.7713 36.2754L17.1252 39.625C17.5387 40.0381 18.2091 40.0381 18.6225 39.625L21.8168 36.4349Z" fill="white"/>
<path d="M17.999 32.782C26.1858 32.782 32.8224 26.1537 32.8224 17.9772C32.8224 9.80075 26.1858 3.17242 17.999 3.17242C9.81225 3.17242 3.17557 9.80075 3.17557 17.9772C3.17557 26.1537 9.81225 32.782 17.999 32.782Z" fill="#FE9923"/>
<mask id="mask0" style="mask-type:alpha" maskUnits="userSpaceOnUse" x="3" y="1" width="30" height="33">
<path d="M28.0591 6.08054C28.0591 6.08054 23.8239 1.32187 18.2651 1.32187C13.9618 1.32187 8.20635 5.81616 8.20635 5.81616C4.74149 8.47447 3.7063 14.2397 3.7063 18.9405C3.7063 26.9717 10.2251 33.4823 18.2662 33.4823C26.3075 33.4823 32.8263 26.9717 32.8263 18.9405C32.8263 14.2398 31.5239 8.73883 28.0591 6.08054Z" fill="#FFC987"/>
</mask>
<g mask="url(#mask0)">
<path d="M20.5505 4.97888C21.1502 4.97888 21.4501 4.97888 21.6597 5.13239C21.7251 5.18024 21.7827 5.23777 21.8306 5.30302C21.9843 5.5124 21.9843 5.81188 21.9843 6.41088C21.9843 7.0099 21.9843 7.30938 21.8306 7.51876C21.7827 7.584 21.7251 7.64153 21.6597 7.68938C21.4501 7.84288 21.1502 7.84288 20.5505 7.84288H19.1167V12.1389C19.1167 12.7379 19.1167 13.0374 18.963 13.2467C18.9151 13.312 18.8574 13.3696 18.7921 13.4174C18.5825 13.571 18.2826 13.571 17.6829 13.571C17.0831 13.571 16.7832 13.571 16.5735 13.4174C16.5082 13.3696 16.4506 13.312 16.4027 13.2467C16.249 13.0374 16.249 12.7379 16.249 12.1389V7.84288H14.8152C14.2154 7.84288 13.9155 7.84288 13.7059 7.68938C13.6406 7.64153 13.583 7.584 13.5351 7.51876C13.3814 7.30938 13.3814 7.0099 13.3814 6.41088C13.3814 5.81188 13.3814 5.5124 13.5351 5.30302C13.583 5.23777 13.6406 5.18024 13.7059 5.13239C13.9155 4.97888 14.2154 4.97888 14.8152 4.97888H16.249V3.54687C16.249 2.94787 16.249 2.64836 16.4027 2.439C16.4506 2.37376 16.5082 2.31621 16.5735 2.26838C16.7832 2.11487 17.0831 2.11487 17.6829 2.11487C18.2826 2.11487 18.5825 2.11487 18.7921 2.26838C18.8574 2.31621 18.9151 2.37376 18.963 2.439C19.1167 2.64836 19.1167 2.94787 19.1167 3.54687V4.97888H20.5505Z" fill="#573353"/>
<g opacity="0.6">
<path opacity="0.6" d="M24.175 17.0367C24.175 15.5411 24.175 14.7934 24.64 14.3288C25.1052 13.8642 25.854 13.8642 27.3515 13.8642H27.823C29.3205 13.8642 30.0691 13.8642 30.5343 14.3288C30.9995 14.7934 30.9995 15.5411 30.9995 17.0367V30.344C30.9995 31.8396 30.9995 32.5873 30.5343 33.0519C30.0691 33.5165 29.3205 33.5165 27.823 33.5165H27.3515C25.854 33.5165 25.1052 33.5165 24.64 33.0519C24.175 32.5873 24.175 31.8396 24.175 30.344V17.0367Z" fill="white"/>
<path opacity="0.6" d="M27.5872 21.5321C27.5872 21.0615 27.9691 20.6801 28.4402 20.6801C28.9114 20.6801 29.2933 21.0615 29.2933 21.5321C29.2933 22.0026 28.9114 22.384 28.4402 22.384C27.9691 22.384 27.5872 22.0026 27.5872 21.5321Z" fill="#573353"/>
<path opacity="0.6" d="M27.5872 18.124C27.5872 17.6535 27.9691 17.2721 28.4402 17.2721C28.9114 17.2721 29.2933 17.6535 29.2933 18.124C29.2933 18.5946 28.9114 18.976 28.4402 18.976C27.9691 18.976 27.5872 18.5946 27.5872 18.124Z" fill="#573353"/>
<path opacity="0.6" d="M27.5872 24.9399C27.5872 24.4694 27.9691 24.0879 28.4402 24.0879C28.9114 24.0879 29.2933 24.4694 29.2933 24.9399C29.2933 25.4105 28.9114 25.7919 28.4402 25.7919C27.9691 25.7919 27.5872 25.4105 27.5872 24.9399Z" fill="#573353"/>
</g>
<g opacity="0.6">
<path opacity="0.6" d="M5.29401 17.0367C5.29401 15.5411 5.29401 14.7934 5.75919 14.3288C6.22438 13.8642 6.97305 13.8642 8.47036 13.8642H8.94191C10.4393 13.8642 11.188 13.8642 11.6531 14.3288C12.1183 14.7934 12.1183 15.5411 12.1183 17.0367V30.344C12.1183 31.8396 12.1183 32.5873 11.6531 33.0519C11.188 33.5165 10.4393 33.5165 8.94191 33.5165H8.47036C6.97305 33.5165 6.22438 33.5165 5.75919 33.0519C5.29401 32.5873 5.29401 31.8396 5.29401 30.344V17.0367Z" fill="white"/>
<path opacity="0.6" d="M6.99997 21.5321C6.99997 21.0615 7.38183 20.6801 7.85287 20.6801C8.32393 20.6801 8.70574 21.0615 8.70574 21.5321C8.70574 22.0026 8.32393 22.384 7.85287 22.384C7.38183 22.384 6.99997 22.0026 6.99997 21.5321Z" fill="#573353"/>
<path opacity="0.6" d="M6.99997 18.124C6.99997 17.6535 7.38183 17.2721 7.85287 17.2721C8.32393 17.2721 8.70574 17.6535 8.70574 18.124C8.70574 18.5946 8.32393 18.976 7.85287 18.976C7.38183 18.976 6.99997 18.5946 6.99997 18.124Z" fill="#573353"/>
<path opacity="0.6" d="M6.99997 24.9399C6.99997 24.4694 7.38183 24.0879 7.85287 24.0879C8.32393 24.0879 8.70574 24.4694 8.70574 24.9399C8.70574 25.4105 8.32393 25.7919 7.85287 25.7919C7.38183 25.7919 6.99997 25.4105 6.99997 24.9399Z" fill="#573353"/>
</g>
<path d="M9.52863 13.7471C9.52863 12.2516 9.52863 11.5038 9.99381 11.0392C10.459 10.5746 11.2076 10.5746 12.7051 10.5746H23.2932C24.7906 10.5746 25.5393 10.5746 26.0044 11.0392C26.4696 11.5038 26.4696 12.2516 26.4696 13.7471V30.1382C26.4696 31.6336 26.4696 32.3814 26.0044 32.846C25.5393 33.3106 24.7906 33.3106 23.2932 33.3106H12.7051C11.2076 33.3106 10.459 33.3106 9.99381 32.846C9.52863 32.3814 9.52863 31.6336 9.52863 30.1382V13.7471Z" fill="white"/>
<path d="M13.7654 28.0238C13.7654 27.7318 14.0024 27.4951 14.2948 27.4951H21.7063C21.9986 27.4951 22.2356 27.7318 22.2356 28.0238V34.8975C22.2356 35.1895 21.9986 35.4263 21.7063 35.4263H14.2948C14.0024 35.4263 13.7654 35.1895 13.7654 34.8975V28.0238Z" fill="#573353"/>
<path opacity="0.7" d="M14.8221 29.08C14.8221 28.788 15.059 28.5514 15.3515 28.5514H20.6457C20.9382 28.5514 21.1752 28.788 21.1752 29.08V34.3677C21.1752 34.6597 20.9382 34.8964 20.6457 34.8964H15.3515C15.059 34.8964 14.8221 34.6597 14.8221 34.3677V29.08Z" fill="white"/>
<path d="M17.2936 24.94C17.2936 24.4694 17.6755 24.0879 18.1466 24.0879C18.6177 24.0879 18.9996 24.4694 18.9996 24.94C18.9996 25.4105 18.6177 25.7919 18.1466 25.7919C17.6755 25.7919 17.2936 25.4105 17.2936 24.94Z" fill="#573353"/>
<path d="M13.8818 24.94C13.8818 24.4694 14.2637 24.0879 14.7348 24.0879C15.2059 24.0879 15.5878 24.4694 15.5878 24.94C15.5878 25.4105 15.2059 25.7919 14.7348 25.7919C14.2637 25.7919 13.8818 25.4105 13.8818 24.94Z" fill="#573353"/>
<path d="M13.8818 21.5319C13.8818 21.0613 14.2637 20.6799 14.7348 20.6799C15.2059 20.6799 15.5878 21.0613 15.5878 21.5319C15.5878 22.0024 15.2059 22.3838 14.7348 22.3838C14.2637 22.3838 13.8818 22.0024 13.8818 21.5319Z" fill="#573353"/>
<path d="M17.2936 21.5319C17.2936 21.0613 17.6755 20.6799 18.1466 20.6799C18.6177 20.6799 18.9996 21.0613 18.9996 21.5319C18.9996 22.0024 18.6177 22.3838 18.1466 22.3838C17.6755 22.3838 17.2936 22.0024 17.2936 21.5319Z" fill="#573353"/>
<path d="M20.7059 21.5319C20.7059 21.0613 21.0878 20.6799 21.559 20.6799C22.0302 20.6799 22.4121 21.0613 22.4121 21.5319C22.4121 22.0024 22.0302 22.3838 21.559 22.3838C21.0878 22.3838 20.7059 22.0024 20.7059 21.5319Z" fill="#573353"/>
<path d="M20.7059 18.124C20.7059 17.6535 21.0878 17.2721 21.559 17.2721C22.0302 17.2721 22.4121 17.6535 22.4121 18.124C22.4121 18.5945 22.0302 18.976 21.559 18.976C21.0878 18.976 20.7059 18.5945 20.7059 18.124Z" fill="#573353"/>
<path d="M17.2936 18.124C17.2936 17.6535 17.6755 17.2721 18.1466 17.2721C18.6177 17.2721 18.9996 17.6535 18.9996 18.124C18.9996 18.5945 18.6177 18.976 18.1466 18.976C17.6755 18.976 17.2936 18.5945 17.2936 18.124Z" fill="#573353"/>
<path d="M13.8818 18.124C13.8818 17.6535 14.2637 17.2721 14.7348 17.2721C15.2059 17.2721 15.5878 17.6535 15.5878 18.124C15.5878 18.5945 15.2059 18.976 14.7348 18.976C14.2637 18.976 13.8818 18.5945 13.8818 18.124Z" fill="#573353"/>
<path d="M13.8818 14.7161C13.8818 14.2456 14.2637 13.8642 14.7348 13.8642C15.2059 13.8642 15.5878 14.2456 15.5878 14.7161C15.5878 15.1866 15.2059 15.5681 14.7348 15.5681C14.2637 15.5681 13.8818 15.1866 13.8818 14.7161Z" fill="#573353"/>
<path d="M17.2936 14.7161C17.2936 14.2456 17.6755 13.8642 18.1466 13.8642C18.6177 13.8642 18.9996 14.2456 18.9996 14.7161C18.9996 15.1866 18.6177 15.5681 18.1466 15.5681C17.6755 15.5681 17.2936 15.1866 17.2936 14.7161Z" fill="#573353"/>
<path d="M20.7059 14.7161C20.7059 14.2456 21.0878 13.8642 21.559 13.8642C22.0302 13.8642 22.4121 14.2456 22.4121 14.7161C22.4121 15.1866 22.0302 15.5681 21.559 15.5681C21.0878 15.5681 20.7059 15.1866 20.7059 14.7161Z" fill="#573353"/>
<path d="M20.7059 24.94C20.7059 24.4694 21.0878 24.0879 21.559 24.0879C22.0302 24.0879 22.4121 24.4694 22.4121 24.94C22.4121 25.4105 22.0302 25.7919 21.559 25.7919C21.0878 25.7919 20.7059 25.4105 20.7059 24.94Z" fill="#573353"/>
</g>
</svg>
