<svg width="32" height="32" viewBox="0 0 32 32" fill="none" xmlns="http://www.w3.org/2000/svg">
<path fill-rule="evenodd" clip-rule="evenodd" d="M15.7927 28.8825C10.8703 28.8825 6.66669 28.1166 6.66669 25.0488C6.66669 21.9811 10.8437 19.1492 15.7927 19.1492C20.7152 19.1492 24.9188 21.9537 24.9188 25.0214C24.9188 28.0879 20.7418 28.8825 15.7927 28.8825Z" stroke="#ADADAD" stroke-width="1.5" stroke-linecap="round" stroke-linejoin="round"/>
<path fill-rule="evenodd" clip-rule="evenodd" d="M15.7831 14.8982C19.0134 14.8982 21.6316 12.28 21.6316 9.0497C21.6316 5.81939 19.0134 3.2 15.7831 3.2C12.5528 3.2 9.93338 5.81939 9.93338 9.0497C9.92251 12.2691 12.5225 14.8873 15.7419 14.8982C15.7564 14.8982 15.7698 14.8982 15.7831 14.8982Z" stroke="#ADADAD" stroke-width="1.5" stroke-linecap="round" stroke-linejoin="round"/>
</svg>
