<svg width="32" height="32" viewBox="0 0 32 32" fill="none" xmlns="http://www.w3.org/2000/svg">
<path opacity="0.4" d="M21.434 2.66666H25.9486C27.8183 2.66666 29.3333 4.19447 29.3333 6.07995V10.6327C29.3333 12.5182 27.8183 14.046 25.9486 14.046H21.434C19.5643 14.046 18.0493 12.5182 18.0493 10.6327V6.07995C18.0493 4.19447 19.5643 2.66666 21.434 2.66666Z" fill="#FE9923"/>
<path d="M10.566 17.954C12.4357 17.954 13.9507 19.4818 13.9507 21.3673V25.92C13.9507 27.8043 12.4357 29.3333 10.566 29.3333H6.05136C4.18166 29.3333 2.66666 27.8043 2.66666 25.92V21.3673C2.66666 19.4818 4.18166 17.954 6.05136 17.954H10.566ZM25.9486 17.954C27.8183 17.954 29.3333 19.4818 29.3333 21.3673V25.92C29.3333 27.8043 27.8183 29.3333 25.9486 29.3333H21.434C19.5643 29.3333 18.0493 27.8043 18.0493 25.92V21.3673C18.0493 19.4818 19.5643 17.954 21.434 17.954H25.9486ZM10.566 2.66666C12.4357 2.66666 13.9507 4.19447 13.9507 6.07995V10.6327C13.9507 12.5182 12.4357 14.046 10.566 14.046H6.05136C4.18166 14.046 2.66666 12.5182 2.66666 10.6327V6.07995C2.66666 4.19447 4.18166 2.66666 6.05136 2.66666H10.566Z" fill="#FE9923"/>
</svg>
